<?xml version="1.0" standalone="no"?> <!DOCTYPE svg PUBLIC "-//W3C//DTD SVG 1.0//EN" "http://www.w3.org/TR/2001/REC-SVG-20010904/DTD/svg10.dtd" > <svg xmlns="http://www.w3.org/2000/svg" width="100%" height="100%">
<defs >
<font id="helveticaneue" horiz-adv-x="620" ><font-face
    font-family="HelveticaNeue-Bold"
    units-per-em="1000"
    panose-1="2 0 8 3 0 0 0 9 0 4"
    ascent="975"
    descent="-217"
    alphabetic="0" />
<missing-glyph horiz-adv-x="500" d="M391 607H111V95H391V607ZM482 698V3H17V698H482Z" />
<glyph unicode=" " glyph-name="space" horiz-adv-x="278" />
<glyph unicode="!" glyph-name="exclam" horiz-adv-x="278" d="M61 154V0H218V154H61ZM213 522V714H65V522L103 214H174L213 522Z" />
<glyph unicode="&quot;" glyph-name="quotedbl" horiz-adv-x="463" d="M85 714V393H192V714H85ZM271 714V393H378V714H271Z" />
<glyph unicode="#" glyph-name="numbersign" horiz-adv-x="556" d="M243 412H339L322 288H225L243 412ZM116 198L88 0H185L213 198H309L282 0H379L406 198H493V288H419L436 412H523V502H449L476 700H379L352 502H255L283 700H186L158 502H63V412H146L128 288H33V198H116Z" />
<glyph unicode="$" glyph-name="dollar" horiz-adv-x="556" d="M141 232H0Q10 114 73 53T248 -16V-101H307V-16Q382 -11 430 14T506 71T546 136T557 192Q557 217 554 249T531 313T472 374T358 424Q344 428 332 431T307 437V614Q341 614 365 586T390 518H532Q529
570 510 608T461 671T392 711T307 731V808H248V731Q203 728 161 714T87 673T36 607T16 517Q16 467 33 434T78 378T143 342T216 318Q226 316 234 314T248 309V100Q202 109 171 142T141 232ZM307 100V292Q366 276 390 257T415 198Q415 174 405 157T380 127T345 109T307
100ZM248 614V451Q200 462 179 480T158 531Q158 552 165 567T186 593T215 609T248 614Z" />
<glyph unicode="%" glyph-name="percent" horiz-adv-x="1000" d="M693 182Q693 199 694 220T703 259T723 289T761 301Q783 301 795 288T814 256T821 217T823 181Q823 165 822 145T814 106T794 74T757 61Q733 61 720 74T701 105T694 145T693 182ZM591 183Q591 142
599 106T627 44T678 2T756 -13Q800 -13 832 1T884 42T915 103T925 179Q925 220 917 256T890 318T839 360T761 376Q717 376 685 361T632 320T601 259T591 183ZM668 722L254 -21H341L753 722H668ZM177 514Q177 531 178 553T187 594T207 626T245 639Q267 639 279 625T298
591T305 550T307 513Q307 497 306 478T298 441T278 411T241 399Q217 399 204 411T185 440T178 478T177 514ZM75 516Q75 475 83 440T111 379T162 339T240 324Q284 324 316 338T368 377T399 436T409 512Q409 553 401 590T374 654T323 698T245 714Q201 714 169 699T116
656T85 593T75 516Z" />
<glyph unicode="&amp;" glyph-name="ampersand" horiz-adv-x="685" d="M464 71L522 0H696L551 169Q581 207 598 252T620 345H497Q494 323 488 302T471 260L379 373Q433 402 469 445T506 551Q506 593 491 625T449 678T387 711T310 722Q274 722 241 711T181 678T140
626T124 559Q124 512 143 477T192 407Q161 392 132 372T81 327T45 270T32 200Q32 149 50 110T99 43T172 1T263 -13Q324 -13 372 8T464 71ZM267 315L389 166Q364 138 336 121T269 103Q249 103 231 110T198 130T176 160T167 197Q167 219 175 237T198 270T230 296T267
315ZM382 559Q382 520 361 498T309 457Q289 482 271 506T253 564Q253 592 272 609T317 627Q343 627 362 607T382 559Z" />
<glyph unicode="&apos;" glyph-name="quotesingle" horiz-adv-x="278" d="M86 714V393H193V714H86Z" />
<glyph unicode="(" glyph-name="parenleft" horiz-adv-x="296" d="M303 731H184Q151 683 127 626T86 508T61 386T52 268Q52 150 86 36T184 -181H302Q245 -72 220 43T194 278Q194 396 220 510T303 731Z" />
<glyph unicode=")" glyph-name="parenright" horiz-adv-x="296" d="M-6 -181H112Q145 -134 170 -77T211 40T236 162T244 280Q244 398 210 513T112 731H-5Q50 622 76 506T102 270Q102 152 76 39T-6 -181Z" />
<glyph unicode="*" glyph-name="asterisk" horiz-adv-x="407" d="M242 589V714H162V589L49 633L22 556L138 517L64 419L131 370L201 473L275 370L341 419L267 517L385 556L358 633L242 589Z" />
<glyph unicode="+" glyph-name="plus" horiz-adv-x="600" d="M354 306V505H247V306H48V199H247V0H354V199H553V306H354Z" />
<glyph unicode="," glyph-name="comma" horiz-adv-x="278" d="M61 154V0H133Q134 -16 129 -31T114 -59T91 -81T62 -93V-165Q94 -160 122 -147T172 -112T205 -63T218 0V154H61Z" />
<glyph unicode="-" glyph-name="hyphen" horiz-adv-x="407" d="M53 334V212H354V334H53Z" />
<glyph unicode="." glyph-name="period" horiz-adv-x="278" d="M60 154V0H217V154H60Z" />
<glyph unicode="/" glyph-name="slash" horiz-adv-x="371" d="M268 731L-10 -16H103L382 731H268Z" />
<glyph unicode="0" glyph-name="zero" horiz-adv-x="556" d="M163 353Q163 371 163 396T167 449T177 502T196 550T228 584T277 597Q306 597 326 584T359 550T378 503T388 449T392 397T393 353Q393 323 391 281T379 199T345 131T277 103Q234 103 211 131T178 198T165
280T163 353ZM21 353Q21 248 41 178T97 65T178 5T277 -13Q330 -13 376 5T458 65T514 177T535 353Q535 455 515 524T459 636T377 696T277 714Q225 714 179 696T97 636T42 525T21 353Z" />
<glyph unicode="1" glyph-name="one" horiz-adv-x="556" d="M392 0V700H279Q273 660 254 633T208 590T146 567T74 561V454H250V0H392Z" />
<glyph unicode="2" glyph-name="two" horiz-adv-x="556" d="M37 431H173Q173 459 178 487T197 539T231 577T284 592Q330 592 359 564T389 484Q389 452 375 427T339 382T291 346T242 313Q197 282 157 252T86 187T39 106T21 0H535V122H204Q230 158 264 185T334 235T405
283T469 336T514 404T531 495Q531 546 512 587T459 656T383 699T291 714Q228 714 180 693T99 633T51 543T37 431Z" />
<glyph unicode="3" glyph-name="three" horiz-adv-x="556" d="M228 417V317Q254 317 282 316T335 305T374 274T390 213Q390 162 357 133T276 103Q245 103 223 114T185 143T162 187T153 241H18Q17 180 35 133T88 54T170 4T278 -13Q329 -13 376 2T459 46T516 118T538
216Q538 276 505 319T414 375V377Q463 391 487 430T512 520Q512 567 491 603T437 664T361 701T277 714Q223 714 179 697T104 647T55 571T35 472H170Q169 526 196 561T278 597Q317 597 347 573T377 504Q377 474 363 456T326 429T277 417T228 417Z" />
<glyph unicode="4" glyph-name="four" horiz-adv-x="556" d="M312 522V279H128L309 522H312ZM312 162V0H447V162H540V279H447V700H320L16 292V162H312Z" />
<glyph unicode="5" glyph-name="five" horiz-adv-x="556" d="M500 583V700H109L40 313H168Q189 342 213 355T275 369Q304 369 326 359T364 331T388 289T396 238Q396 212 388 188T364 145T326 115T275 103Q227 103 196 131T160 208H18Q19 153 40 112T98 42T180
1T278 -13Q331 -14 378 4T460 57T517 137T538 238Q538 287 524 330T482 406T414 457T322 476Q280 476 247 464T185 422L183 424L211 583H500Z" />
<glyph unicode="6" glyph-name="six" horiz-adv-x="556" d="M286 363Q313 363 333 352T367 322T386 280T393 231Q393 207 386 184T365 143T332 114T286 103Q259 103 238 114T203 143T181 185T173 233Q173 259 180 282T201 324T236 352T286 363ZM388 520H523Q517
567 498 603T449 663T380 701T296 714Q221 714 169 681T84 596T36 478T21 348Q21 281 33 217T76 101T159 19T290 -13Q345 -13 390 6T467 60T517 141T535 242Q535 284 522 325T481 398Q451 431 408 450T320 470Q269 470 230 452T162 392L160 394Q161 423 168 460T190
529T230 584T294 607Q331 607 356 581T388 520Z" />
<glyph unicode="7" glyph-name="seven" horiz-adv-x="556" d="M517 578V700H39V568H371Q271 447 210 302T136 0H288Q289 70 304 151T348 311T419 460T517 578Z" />
<glyph unicode="8" glyph-name="eight" horiz-adv-x="556" d="M172 510Q172 534 180 552T204 582T238 600T279 607Q312 607 332 597T364 572T380 541T384 510Q384 465 354 442T279 418Q236 418 204 441T172 510ZM43 523Q43 471 69 432T146 379V377Q83 362 49 317T14
205Q14 148 36 107T96 39T181 0T280 -13Q329 -13 376 0T460 41T519 109T542 206Q542 272 508 317T411 377V379Q462 396 487 435T513 526Q513 552 501 584T462 645T389 694T279 714Q236 714 194 702T119 666T64 606T43 523ZM156 212Q156 266 192 294T280 323Q305
323 326 315T364 292T390 257T400 211Q400 185 391 163T366 126T328 102T280 93Q255 93 232 101T193 125T166 163T156 212Z" />
<glyph unicode="9" glyph-name="nine" horiz-adv-x="556" d="M270 337Q243 337 223 348T189 378T170 420T163 469Q163 493 170 516T191 557T225 586T270 597Q297 597 318 586T353 557T375 515T383 467Q383 441 376 418T355 376T320 348T270 337ZM168 180H33Q39
134 58 98T107 37T176 0T260 -13Q335 -13 387 19T472 104T520 222T535 352Q535 418 523 483T480 599T398 682T266 714Q211 714 166 694T89 640T39 559T21 458Q21 416 34 375T75 302Q105 269 148 250T236 230Q287 230 326 248T394 308L396 306Q394 277 388 240T366
171T326 116T262 93Q225 93 200 119T168 180Z" />
<glyph unicode=":" glyph-name="colon" horiz-adv-x="278" d="M218 354V508H61V354H218ZM61 154V0H218V154H61Z" />
<glyph unicode=";" glyph-name="semicolon" horiz-adv-x="278" d="M218 354V508H61V354H218ZM61 154V0H133Q134 -16 129 -31T114 -59T91 -81T62 -93V-165Q94 -160 122 -147T172 -112T205 -63T218 0V154H61Z" />
<glyph unicode="&lt;" glyph-name="less" horiz-adv-x="600" d="M554 399V514L46 312V194L554 -7V107L187 253L554 399Z" />
<glyph unicode="=" glyph-name="equal" horiz-adv-x="600" d="M553 92V199H48V92H553ZM553 306V413H48V306H553Z" />
<glyph unicode="&gt;" glyph-name="greater" horiz-adv-x="600" d="M46 107V-7L554 194V312L46 514V399L413 253L46 107Z" />
<glyph unicode="?" glyph-name="question" horiz-adv-x="556" d="M193 154V0H350V154H193ZM32 484H179Q179 511 185 534T203 575T235 603T282 614Q322 614 344 592T367 524Q368 497 358 479T330 446T293 416T255 381T224 331T207 259V214H342V252Q346 282 361
302T397 337T439 368T480 406T511 459T524 538Q524 567 512 600T470 663T394 711T275 731Q220 731 176 713T100 661T51 583T32 484Z" />
<glyph unicode="@" glyph-name="at" horiz-adv-x="800" d="M559 287L622 545H540L524 491Q507 530 473 545T407 561Q358 561 318 539T249 481T205 399T189 306Q189 271 201 240T235 186T285 149T346 135Q378 135 407 149T454 193H456Q458 168 477 152T529 136Q553
136 592 152T670 204T736 294T764 426Q764 495 735 551T658 647T547 709T416 731Q338 731 269 702T148 623T66 505T36 357Q36 277 66 209T148 90T271 12T421 -16Q515 -16 595 25T726 145H642Q603 106 547 85T427 63Q363 63 309 84T215 143T154 235T132 355Q132
418 152 472T209 566T298 628T415 651Q472 651 521 635T607 588T665 511T686 405Q686 365 676 331T649 273T611 235T568 221Q559 221 555 227T551 244Q551 254 553 265T559 287ZM291 319Q291 344 300 370T325 417T365 452T415 466Q447 466 469 442T492 381Q492
355 483 328T458 280T419 244T369 230Q334 230 313 254T291 319Z" />
<glyph unicode="A" glyph-name="A" horiz-adv-x="685" d="M249 276L342 538H344L434 276H249ZM264 714L-6 0H152L208 159H475L529 0H692L425 714H264Z" />
<glyph unicode="B" glyph-name="B" horiz-adv-x="704" d="M226 425V592H373Q394 592 413 589T448 576T472 551T481 510Q481 465 454 445T385 425H226ZM69 714V0H415Q463 0 508 12T589 49T646 113T667 207Q667 274 635 321T536 388Q584 411 608 447T633 537Q633
587 617 621T570 675T498 705T405 714H69ZM226 122V318H397Q448 318 479 295T510 216Q510 188 501 170T475 142T438 127T394 122H226Z" />
<glyph unicode="C" glyph-name="C" horiz-adv-x="741" d="M545 474H697Q690 536 663 584T595 664T501 714T389 731Q307 731 242 702T131 622T62 503T38 354Q38 276 62 209T131 91T241 13T389 -16Q455 -16 510 4T606 62T672 154T703 275H551Q542 203 502 159T389
115Q336 115 299 135T239 190T206 266T195 354Q195 401 205 445T239 523T299 578T389 599Q418 599 444 590T492 563T527 524T545 474Z" />
<glyph unicode="D" glyph-name="D" horiz-adv-x="741" d="M226 132V582H338Q396 582 435 566T499 518T533 444T544 346Q544 287 529 246T489 180T432 143T366 132H226ZM69 714V0H377Q459 0 519 27T620 103T681 217T701 361Q701 450 677 516T609 626T506 692T377 714H69Z" />
<glyph unicode="E" glyph-name="E" horiz-adv-x="648" d="M69 714V0H611V132H226V307H572V429H226V582H603V714H69Z" />
<glyph unicode="F" glyph-name="F" horiz-adv-x="593" d="M69 714V0H226V295H525V417H226V582H571V714H69Z" />
<glyph unicode="G" glyph-name="G" horiz-adv-x="759" d="M585 81L601 0H701V386H401V269H559Q552 194 510 155T389 115Q336 115 299 135T239 190T206 266T195 354Q195 401 205 445T239 523T299 578T389 599Q446 599 486 569T540 479H690Q684 540 657 587T589
666T496 714T389 731Q307 731 242 702T131 622T62 503T38 354Q38 276 62 209T131 91T241 13T389 -16Q441 -16 492 5T585 81Z" />
<glyph unicode="H" glyph-name="H" horiz-adv-x="741" d="M69 714V0H226V308H515V0H672V714H515V440H226V714H69Z" />
<glyph unicode="I" glyph-name="I" horiz-adv-x="295" d="M69 714V0H226V714H69Z" />
<glyph unicode="J" glyph-name="J" horiz-adv-x="556" d="M487 225V714H330V232Q330 213 329 193T320 155T295 126T247 115Q219 115 202 124T174 148T160 186T156 234V266H14V204Q14 145 34 104T87 36T162 -3T249 -16Q329 -16 376 8T448 69T480 148T487 225Z" />
<glyph unicode="K" glyph-name="K" horiz-adv-x="722" d="M69 714V0H226V230L316 321L531 0H728L422 432L701 714H505L226 418V714H69Z" />
<glyph unicode="L" glyph-name="L" horiz-adv-x="593" d="M69 714V0H574V132H226V714H69Z" />
<glyph unicode="M" glyph-name="M" horiz-adv-x="907" d="M69 714V0H216V501H218L393 0H514L689 506H691V0H838V714H617L459 223H457L290 714H69Z" />
<glyph unicode="N" glyph-name="N" horiz-adv-x="741" d="M69 714V0H216V478H218L515 0H672V714H525V235H523L225 714H69Z" />
<glyph unicode="O" glyph-name="O" horiz-adv-x="778" d="M195 354Q195 401 205 445T239 523T299 578T389 599Q442 599 479 579T539 524T572 445T583 354Q583 309 573 267T539 190T479 136T389 115Q336 115 299 135T239 190T206 266T195 354ZM38 354Q38 276 62
209T131 91T241 13T389 -16Q472 -16 537 12T647 91T716 208T740 354Q740 434 716 502T647 622T537 702T389 731Q307 731 242 702T131 622T62 503T38 354Z" />
<glyph unicode="P" glyph-name="P" horiz-adv-x="667" d="M226 378V592H348Q375 592 400 588T444 573T474 540T486 485Q486 451 475 430T444 398T400 382T348 378H226ZM69 714V0H226V256H391Q458 256 505 275T581 327T624 400T638 485Q638 529 625 570T582 643T505
694T391 714H69Z" />
<glyph unicode="Q" glyph-name="Q" horiz-adv-x="778" d="M539 190Q559 217 571 257T583 354Q583 401 573 445T539 523T479 578T389 599Q336 599 299 579T239 524T206 445T195 354Q195 309 205 267T239 190T299 136T389 115Q414 115 427 117T452 125L385 186L458
264L539 190ZM562 25Q491 -16 389 -16Q307 -16 242 12T131 91T62 208T38 354Q38 434 62 502T131 622T241 702T389 731Q472 731 537 702T647 622T716 503T740 354Q740 276 716 209T647 91L736 10L663 -66L562 25Z" />
<glyph unicode="R" glyph-name="R" horiz-adv-x="722" d="M226 391V592H398Q452 592 479 569T506 493Q506 439 479 415T398 391H226ZM69 714V0H226V279H383Q442 279 468 253T502 171Q508 128 511 81T527 0H684Q673 15 668 36T660 82T656 129T654 169Q652 196 647
223T629 272T598 311T550 336V338Q610 362 636 408T663 517Q663 558 649 593T607 656T541 698T454 714H69Z" />
<glyph unicode="S" glyph-name="S" horiz-adv-x="649" d="M176 237H24Q23 171 48 123T115 44T213 -1T328 -16Q401 -16 456 1T549 48T606 121T625 212Q625 272 600 310T539 372T469 405T413 420Q346 437 305 448T240 470T208 494T200 528Q200 551 210 566T235 591T270
605T308 609Q337 609 361 604T405 587T435 554T449 501H601Q601 563 578 606T514 678T423 718T315 731Q267 731 219 718T133 678T72 611T48 515Q48 466 66 432T115 374T183 337T261 312Q300 301 338 292T406 271T454 241T473 194Q473 167 459 150T424 122T379 109T334
105Q303 105 274 112T224 135T189 176T176 237Z" />
<glyph unicode="T" glyph-name="T" horiz-adv-x="611" d="M227 582V0H384V582H598V714H13V582H227Z" />
<glyph unicode="U" glyph-name="U" horiz-adv-x="741" d="M675 270V714H518V270Q518 190 486 153T370 115Q322 115 294 128T249 163T228 213T223 270V714H66V270Q66 124 145 54T370 -16Q513 -16 594 54T675 270Z" />
<glyph unicode="V" glyph-name="V" horiz-adv-x="630" d="M401 0L638 714H476L315 212H313L154 714H-7L224 0H401Z" />
<glyph unicode="W" glyph-name="W" horiz-adv-x="944" d="M749 0L941 714H787L670 222H668L546 714H399L275 228H273L160 714H3L192 0H351L470 486H472L593 0H749Z" />
<glyph unicode="X" glyph-name="X" horiz-adv-x="667" d="M244 374L-5 0H171L330 247L486 0H673L424 373L653 714H481L336 486L196 714H14L244 374Z" />
<glyph unicode="Y" glyph-name="Y" horiz-adv-x="667" d="M254 278V0H411V274L676 714H501L335 432L168 714H-8L254 278Z" />
<glyph unicode="Z" glyph-name="Z" horiz-adv-x="648" d="M23 124V0H625V132H232L615 590V714H53V582H406L23 124Z" />
<glyph unicode="[" glyph-name="bracketleft" horiz-adv-x="333" d="M68 731V-181H332V-69H210V619H332V731H68Z" />
<glyph unicode="\" glyph-name="backslash" horiz-adv-x="371" d="M382 -16L103 731H-10L268 -16H382Z" />
<glyph unicode="]" glyph-name="bracketright" horiz-adv-x="333" d="M265 -181V731H1V619H123V-69H1V-181H265Z" />
<glyph unicode="^" glyph-name="asciicircum" horiz-adv-x="600" d="M233 700L61 315H178L300 590L422 315H539L367 700H233Z" />
<glyph unicode="_" glyph-name="underscore" horiz-adv-x="500" d="M0 -74V-124H500V-74H0Z" />
<glyph unicode="`" glyph-name="grave" horiz-adv-x="259" d="M109 723L205 581H106L-47 723H109Z" />
<glyph unicode="a" glyph-name="a" horiz-adv-x="574" d="M48 358H190Q194 400 218 418T284 436Q303 436 319 434T348 424T368 403T376 366Q377 344 363 333T325 315T270 306T207 298T144 285T88 259T48 214T32 141Q32 101 45 72T83 24T139 -4T208 -13Q256 -13
302 1T382 50Q383 37 385 25T392 0H536Q526 16 522 48T518 115V384Q518 431 497 459T443 504T370 525T291 531Q248 531 206 523T129 494T73 441T48 358ZM376 253V200Q376 188 374 168T360 129T326 95T261 81Q244 81 228 84T200 94T181 115T174 147Q174 167 181
180T199 201T226 215T258 223Q275 226 292 228T324 233T353 240T376 253Z" />
<glyph unicode="b" glyph-name="b" horiz-adv-x="611" d="M433 258Q433 226 426 196T404 143T367 107T312 93Q281 93 258 106T220 143T198 196T191 258Q191 291 198 321T220 374T258 410T312 424Q344 424 366 411T404 374T426 321T433 258ZM54 714V0H189V66H191Q214
23 259 5T361 -13Q400 -13 438 3T506 52T556 136T575 259Q575 330 556 381T507 466T438 515T361 531Q313 531 269 513T198 454H196V714H54Z" />
<glyph unicode="c" glyph-name="c" horiz-adv-x="574" d="M406 335H545Q542 385 521 421T467 482T391 519T302 531Q239 531 190 510T107 452T56 363T38 251Q38 193 57 145T110 61T192 7T299 -13Q402 -13 468 41T548 198H411Q404 150 377 122T298 93Q265 93 242
108T206 146T186 199T180 256Q180 285 186 314T206 368T244 408T301 424Q392 424 406 335Z" />
<glyph unicode="d" glyph-name="d" horiz-adv-x="611" d="M421 260Q421 228 415 198T395 145T358 107T299 93Q266 93 243 107T204 145T181 199T174 259Q174 291 180 320T201 373T240 410T299 424Q334 424 357 410T394 374T415 322T421 260ZM423 66V0H558V714H416V454H414Q390
492 349 511T261 531Q204 531 161 509T90 449T47 364T32 263Q32 209 46 159T89 71T162 10T264 -13Q315 -13 355 5T421 66H423Z" />
<glyph unicode="e" glyph-name="e" horiz-adv-x="574" d="M402 314H171Q172 329 177 348T196 384T232 412T289 424Q341 424 366 396T402 314ZM171 224H544Q548 284 534 339T489 437T408 505T293 531Q234 531 186 510T102 453T48 366T29 258Q29 198 47 148T100
62T183 7T293 -13Q381 -13 443 27T535 160H410Q403 136 372 115T298 93Q238 93 206 124T171 224Z" />
<glyph unicode="f" glyph-name="f" horiz-adv-x="333" d="M85 422V0H227V422H325V517H227V548Q227 580 239 593T281 607Q308 607 333 604V710Q315 711 296 712T258 714Q171 714 128 670T85 557V517H0V422H85Z" />
<glyph unicode="g" glyph-name="g" horiz-adv-x="611" d="M295 122Q262 122 240 136T205 172T186 221T180 277Q180 306 186 332T207 379T243 412T295 424Q330 424 353 411T390 376T410 326T416 265Q416 237 409 212T386 166T348 134T295 122ZM551 33V517H416V448H414Q388
493 350 512T260 531Q206 531 165 510T95 454T53 372T38 275Q38 222 50 175T90 92T159 36T259 15Q306 15 348 34T414 95H416V27Q417 -28 390 -64T302 -100Q264 -100 235 -85T196 -29H55Q58 -73 79 -104T133 -156T205 -185T283 -195Q372 -195 425 -171T506 -113T542
-38T551 33Z" />
<glyph unicode="h" glyph-name="h" horiz-adv-x="593" d="M54 714V0H196V271Q196 350 222 384T306 419Q357 419 377 388T397 292V0H539V318Q539 366 531 405T501 472T444 515T350 531Q310 531 268 511T199 445H196V714H54Z" />
<glyph unicode="i" glyph-name="i" horiz-adv-x="258" d="M200 597V714H58V597H200ZM58 517V0H200V517H58Z" />
<glyph unicode="j" glyph-name="j" horiz-adv-x="278" d="M209 597V714H67V597H209ZM-18 -60V-177Q2 -181 27 -181Q81 -181 116 -172T171 -143T200 -94T209 -25V517H67V-18Q67 -47 51 -55T12 -64Q-7 -64 -18 -60Z" />
<glyph unicode="k" glyph-name="k" horiz-adv-x="574" d="M67 714V0H209V178L264 231L406 0H578L361 327L556 517H388L209 331V714H67Z" />
<glyph unicode="l" glyph-name="l" horiz-adv-x="258" d="M58 714V0H200V714H58Z" />
<glyph unicode="m" glyph-name="m" horiz-adv-x="906" d="M58 517V0H200V300Q200 338 211 361T237 397T269 414T296 419Q330 419 347 408T372 377T381 336T382 290V0H524V288Q524 312 527 335T541 377T570 407T619 419Q649 419 666 409T693 382T704 342T706 293V0H848V346Q848
396 834 431T795 489T735 521T659 531Q605 531 566 505T503 445Q482 493 442 512T352 531Q301 531 262 509T194 447H192V517H58Z" />
<glyph unicode="n" glyph-name="n" horiz-adv-x="593" d="M54 517V0H196V271Q196 350 222 384T306 419Q357 419 377 388T397 292V0H539V318Q539 366 531 405T501 472T444 515T350 531Q305 531 262 511T192 445H189V517H54Z" />
<glyph unicode="o" glyph-name="o" horiz-adv-x="611" d="M180 258Q180 289 186 319T206 372T245 409T305 424Q341 424 365 410T404 372T425 319T431 258Q431 227 425 198T405 145T366 107T305 93Q269 93 245 107T207 144T186 197T180 258ZM38 258Q38 196 57 146T111
61T195 6T305 -13Q366 -13 415 6T500 60T554 146T573 258Q573 320 554 370T500 456T416 511T305 531Q244 531 195 512T111 457T57 371T38 258Z" />
<glyph unicode="p" glyph-name="p" horiz-adv-x="611" d="M315 93Q281 93 257 107T219 143T198 196T191 257Q191 289 197 319T217 372T255 409T314 424Q348 424 371 410T410 372T431 318T438 257Q438 226 432 196T412 144T374 107T315 93ZM54 517V-181H196V64H198Q224
26 264 7T353 -13Q410 -13 452 9T523 68T566 153T580 253Q580 308 566 358T523 447T450 508T345 531Q297 531 257 512T191 451H189V517H54Z" />
<glyph unicode="q" glyph-name="q" horiz-adv-x="611" d="M174 258Q174 290 180 319T202 372T241 410T300 424Q333 424 356 409T394 370T414 316T421 256Q421 224 415 195T394 143T356 107T297 93Q262 93 239 107T201 144T180 197T174 258ZM558 -181V517H423V451H421Q397
494 355 512T264 531Q205 531 162 508T89 447T46 358T32 255Q32 180 53 129T106 46T176 1T251 -13Q299 -13 344 5T414 65H416V-181H558Z" />
<glyph unicode="r" glyph-name="r" horiz-adv-x="389" d="M54 517V0H196V233Q196 268 203 298T226 350T270 386T336 399Q349 399 363 398T387 394V526Q370 531 356 531Q329 531 304 523T257 501T218 466T191 421H189V517H54Z" />
<glyph unicode="s" glyph-name="s" horiz-adv-x="537" d="M164 168H29Q31 116 52 82T107 26T184 -4T272 -13Q316 -13 358 -5T434 25T487 80T508 166Q508 202 494 226T457 267T405 294T344 311Q314 318 285 324T234 337T197 357T183 388Q183 404 191 413T210 428T236
434T262 436Q300 436 328 422T359 366H494Q490 414 470 445T418 496T348 523T266 531Q224 531 184 524T112 498T61 447T41 365Q41 331 55 308T92 269T144 244T205 227Q281 211 323 195T366 147Q366 128 357 116T335 96T305 85T273 81Q252 81 233 86T198 101T174
128T164 168Z" />
<glyph unicode="t" glyph-name="t" horiz-adv-x="352" d="M234 517V672H92V517H6V422H92V117Q92 78 105 54T140 17T192 0T255 -5Q276 -5 298 -4T338 0V110Q328 108 317 107T294 106Q258 106 246 118T234 166V422H338V517H234Z" />
<glyph unicode="u" glyph-name="u" horiz-adv-x="593" d="M539 0V517H397V246Q397 167 371 133T287 98Q236 98 216 129T196 225V517H54V199Q54 151 62 112T92 45T149 2T243 -13Q288 -13 331 7T401 72H404V0H539Z" />
<glyph unicode="v" glyph-name="v" horiz-adv-x="520" d="M340 0L515 517H374L265 164H263L154 517H5L182 0H340Z" />
<glyph unicode="w" glyph-name="w" horiz-adv-x="814" d="M645 0L808 517H662L567 167H565L477 517H339L253 166H251L156 517H6L170 0H317L405 347H407L499 0H645Z" />
<glyph unicode="x" glyph-name="x" horiz-adv-x="537" d="M186 272L0 0H159L267 163L375 0H537L346 275L516 517H359L269 382L178 517H16L186 272Z" />
<glyph unicode="y" glyph-name="y" horiz-adv-x="519" d="M309 -64L525 517H378L265 163H263L146 517H-5L176 32Q182 17 182 0Q182 -23 169 -42T127 -64Q106 -65 85 -63T44 -59V-176Q66 -178 87 -179T131 -181Q204 -181 245 -154T309 -64Z" />
<glyph unicode="z" glyph-name="z" horiz-adv-x="519" d="M22 107V0H497V107H209L478 410V517H42V410H291L22 107Z" />
<glyph unicode="{" glyph-name="braceleft" horiz-adv-x="333" d="M333 619V731H206Q189 731 168 723T128 698T96 656T83 596V408Q83 383 73 366T49 338T19 323T-8 318V231Q3 231 19 227T49 213T73 187T83 148V-46Q83 -80 96 -105T127 -147T167 -172T206 -181H333V-69H279Q261
-69 251 -62T234 -45T227 -21T225 3V163Q225 195 214 215T187 248T154 266T126 273V276Q137 277 154 282T186 299T213 334T225 394V546Q225 558 226 571T234 594T250 612T279 619H333Z" />
<glyph unicode="|" glyph-name="bar" horiz-adv-x="223" d="M58 786V-213H165V786H58Z" />
<glyph unicode="}" glyph-name="braceright" horiz-adv-x="333" d="M0 -69V-181H127Q144 -181 165 -173T205 -148T237 -106T250 -46V148Q250 171 260 187T284 212T314 226T342 231V318Q330 318 314 322T284 337T260 365T250 408V596Q250 630 237 655T206 697T166
722T127 731H0V619H54Q72 619 82 612T99 595T106 571T108 546V394Q108 357 119 335T146 300T179 282T207 276V273Q196 272 179 267T147 249T120 216T108 163V3Q108 -8 107 -21T99 -44T83 -62T54 -69H0Z" />
<glyph unicode="~" glyph-name="asciitilde" horiz-adv-x="600" d="M533 251L493 344Q484 331 475 318T456 295T433 279T405 272Q385 272 358 284T303 308Q274 321 246 330T192 340Q167 340 148 333T113 313T86 286T67 254L107 161Q113 174 120 187T138 210T162
226T191 233Q226 233 254 223T306 198Q331 184 355 175T408 165Q431 165 449 172T483 192T510 219T533 251Z" />
</font>
</defs>
</svg>
